<?xml version="1.0" standalone="no"?>
<!DOCTYPE svg PUBLIC "-//W3C//DTD SVG 1.1//EN" "http://www.w3.org/Graphics/SVG/1.1/DTD/svg11.dtd">
<svg width="182mm" height="158mm" viewBox="-91 -79 182 158" xmlns="http://www.w3.org/2000/svg" version="1.1">
<title>OpenSCAD Model</title>
<path d="
M 43.6619,-19.6 L 32.1149,-39.6 L 50.0359,-70.6401 L 45.41,-78.6524 L 35.032,-78.6524 L 22.3,-56.6
 L 9.56801,-78.6524 L -10.0592,-78.6524 L -10.0612,-78.6513 L 33.847,-2.59999 z
M 4.85689,-47.6123 L -18.2371,-47.6123 L -36.1581,-78.6524 L -45.41,-78.6524 L -50.599,-69.6648 L -37.867,-47.6124
 L -63.331,-47.6123 L -73.1446,-30.6147 L -73.1446,-30.6124 L 14.6718,-30.6124 z
M 50.3521,8.01234 L 86.194,8.01234 L 90.82,-0 L 85.631,-8.98763 L 60.167,-8.98763 L 72.899,-31.0401
 L 63.0854,-48.0377 L 63.0834,-48.0389 L 19.1752,28.0124 L 38.805,28.0124 z
M -19.1752,-28.0124 L -38.805,-28.0124 L -50.3521,-8.01234 L -86.194,-8.01234 L -90.82,-0 L -85.631,8.98763
 L -60.167,8.98763 L -72.899,31.0401 L -63.0854,48.0377 L -63.0834,48.0389 z
M -22.3,56.6 L -9.56801,78.6524 L 10.0592,78.6524 L 10.0612,78.6513 L -33.847,2.59999 L -43.6619,19.6
 L -32.1149,39.6 L -50.0359,70.6401 L -45.41,78.6524 L -35.032,78.6524 z
M 50.599,69.6648 L 37.867,47.6124 L 63.331,47.6123 L 73.1446,30.6147 L 73.1446,30.6124 L -14.6718,30.6124
 L -4.85689,47.6123 L 18.2371,47.6123 L 36.1581,78.6524 L 45.41,78.6524 z
" stroke="black" fill="lightgray" stroke-width="0.5"/>
</svg>
