<?xml version="1.0" standalone="no"?>
<!DOCTYPE svg PUBLIC "-//W3C//DTD SVG 1.1//EN" "http://www.w3.org/Graphics/SVG/1.1/DTD/svg11.dtd">
<svg width="180mm" height="156mm" viewBox="-90 -78 180 156" xmlns="http://www.w3.org/2000/svg" version="1.1">
<title>OpenSCAD Model</title>
<path d="
M 42.662,-20.6 L 31.6923,-39.6 L 49.1646,-69.8629 L 44.75,-77.5093 L 32.7946,-77.5093 L 21.3,-57.6
 L 9.80537,-77.5093 L -10.9792,-77.5093 L 32.2696,-2.59999 z
M 3.49088,-47.2463 L -18.4484,-47.2463 L -35.9208,-77.5093 L -44.75,-77.5093 L -50.7277,-67.1556 L -39.233,-47.2463
 L -62.2223,-47.2463 L -72.6146,-29.2463 L 13.8831,-29.2463 z
M 50.1407,7.64633 L 85.0854,7.64632 L 89.5,-0 L 83.5223,-10.3537 L 60.533,-10.3537 L 72.0277,-30.2629
 L 61.6354,-48.2629 L 18.3865,26.6463 L 39.1711,26.6463 z
M -18.3865,-26.6463 L -39.1711,-26.6463 L -50.1407,-7.64633 L -85.0854,-7.64632 L -89.5,-0 L -83.5223,10.3537
 L -60.533,10.3537 L -72.0277,30.2629 L -61.6354,48.2629 z
M -21.3,57.6 L -9.80537,77.5093 L 10.9792,77.5093 L -32.2696,2.59999 L -42.662,20.6 L -31.6923,39.6
 L -49.1646,69.8629 L -44.75,77.5093 L -32.7946,77.5093 z
M 50.7277,67.1556 L 39.233,47.2463 L 62.2223,47.2463 L 72.6146,29.2463 L -13.8831,29.2463 L -3.49088,47.2463
 L 18.4484,47.2463 L 35.9208,77.5093 L 44.75,77.5093 z
" stroke="black" fill="lightgray" stroke-width="0.5"/>
</svg>
