<?xml version="1.0" standalone="no"?>
<!DOCTYPE svg PUBLIC "-//W3C//DTD SVG 1.1//EN" "http://www.w3.org/Graphics/SVG/1.1/DTD/svg11.dtd">
<svg width="152mm" height="132mm" viewBox="-76 -66 152 132" xmlns="http://www.w3.org/2000/svg" version="1.1">
<title>OpenSCAD Model</title>
<path d="
M 33.6619,-29.6 L 27.8884,-39.6 L 40.5127,-61.4658 L 38,-65.8179 L -18.4254,-65.8179 L 18.0735,-2.59999
 z
M -8.80334,-43.9521 L -20.3504,-43.9521 L -32.9746,-65.8179 L -38,-65.8179 L -66.2127,-16.9521 L 6.78508,-16.9521
 z
M 48.2388,4.35208 L 73.4873,4.35208 L 76,-0 L 47.7873,-48.8658 L 11.2884,14.3521 L 42.4653,14.3521
 z
M -11.2884,-14.3521 L -42.4653,-14.3521 L -48.2388,-4.35208 L -73.4873,-4.35208 L -76,-0 L -47.7873,48.8658
 z
M -18.0735,2.59999 L -33.6619,29.6 L -27.8884,39.6 L -40.5127,61.4658 L -38,65.8179 L 18.4254,65.8179
 z
M 66.2127,16.9521 L -6.78508,16.9521 L 8.80334,43.9521 L 20.3504,43.9521 L 32.9746,65.8179 L 38,65.8179
 z
" stroke="black" fill="lightgray" stroke-width="0.5"/>
</svg>
