<?xml version="1.0" standalone="no"?>
<!DOCTYPE svg PUBLIC "-//W3C//DTD SVG 1.1//EN" "http://www.w3.org/Graphics/SVG/1.1/DTD/svg11.dtd">
<svg width="150mm" height="130mm" viewBox="-75 -65 150 130" xmlns="http://www.w3.org/2000/svg" version="1.1">
<title>OpenSCAD Model</title>
<path d="
M 32.662,-30.6 L 27.4658,-39.6 L 39.5514,-60.5328 L 37.25,-64.5189 L -19.2527,-64.5189 L 16.4961,-2.59999
 z
M -10.1694,-43.5861 L -20.5617,-43.5861 L -32.6473,-64.5189 L -37.25,-64.5189 L -65.5014,-15.5861 L 5.9964,-15.5861
 z
M 48.0275,3.98607 L 72.1986,3.98607 L 74.5,-0 L 46.2486,-48.9328 L 10.4997,12.9861 L 42.8313,12.9861
 z
M -10.4997,-12.9861 L -42.8313,-12.9861 L -48.0275,-3.98607 L -72.1986,-3.98607 L -74.5,-0 L -46.2486,48.9328
 z
M -16.4961,2.59999 L -32.662,30.6 L -27.4658,39.6 L -39.5514,60.5328 L -37.25,64.5189 L 19.2527,64.5189
 z
M 65.5014,15.5861 L -5.9964,15.5861 L 10.1694,43.5861 L 20.5617,43.5861 L 32.6473,64.5189 L 37.25,64.5189
 z
" stroke="black" fill="lightgray" stroke-width="0.5"/>
</svg>
