<?xml version="1.0" standalone="no"?>
<!DOCTYPE svg PUBLIC "-//W3C//DTD SVG 1.1//EN" "http://www.w3.org/Graphics/SVG/1.1/DTD/svg11.dtd">
<svg width="146mm" height="128mm" viewBox="-73 -64 146 128" xmlns="http://www.w3.org/2000/svg" version="1.1">
<title>OpenSCAD Model</title>
<path d="
M 31.662,-31.6 L 27.0431,-39.6 L 38.59,-59.5998 L 36.5,-63.2198 L -20.0801,-63.2198 L 14.9188,-2.59998
 z
M -11.5354,-43.22 L -20.773,-43.22 L -32.3199,-63.2198 L -36.5,-63.2198 L -64.79,-14.2201 L 5.20775,-14.22
 z
M 47.8162,3.62004 L 70.91,3.62003 L 73,-0 L 44.7099,-48.9998 L 9.71103,11.6201 L 43.1974,11.6201
 z
M -9.71103,-11.6201 L -43.1974,-11.6201 L -47.8162,-3.62004 L -70.91,-3.62003 L -73,-0 L -44.7099,48.9998
 z
M -14.9188,2.59998 L -31.662,31.6 L -27.0431,39.6 L -38.59,59.5998 L -36.5,63.2198 L 20.0801,63.2198
 z
M 64.79,14.2201 L -5.20775,14.22 L 11.5354,43.22 L 20.773,43.22 L 32.3199,63.2198 L 36.5,63.2198
 z
" stroke="black" fill="lightgray" stroke-width="0.5"/>
</svg>
