<?xml version="1.0" standalone="no"?>
<!DOCTYPE svg PUBLIC "-//W3C//DTD SVG 1.1//EN" "http://www.w3.org/Graphics/SVG/1.1/DTD/svg11.dtd">
<svg width="144mm" height="124mm" viewBox="-72 -62 144 124" xmlns="http://www.w3.org/2000/svg" version="1.1">
<title>OpenSCAD Model</title>
<path d="
M 30.662,-32.6 L 26.6205,-39.6 L 37.6287,-58.6668 L 35.75,-61.9208 L -20.9074,-61.9208 L 13.3414,-2.59998
 z
M -12.9014,-42.854 L -20.9843,-42.854 L -31.9926,-61.9208 L -35.75,-61.9208 L -64.0787,-12.854 L 4.41907,-12.854
 z
M 47.6048,3.25401 L 69.6213,3.25401 L 71.5,-0 L 43.1713,-49.0668 L 8.92236,10.254 L 43.5634,10.254
 z
M -8.92236,-10.254 L -43.5634,-10.254 L -47.6048,-3.25401 L -69.6213,-3.25401 L -71.5,-0 L -43.1713,49.0668
 z
M -13.3414,2.59998 L -30.662,32.6 L -26.6205,39.6 L -37.6287,58.6668 L -35.75,61.9208 L 20.9074,61.9208
 z
M 64.0787,12.854 L -4.41907,12.854 L 12.9014,42.854 L 20.9843,42.854 L 31.9926,61.9208 L 35.75,61.9208
 z
" stroke="black" fill="lightgray" stroke-width="0.5"/>
</svg>
