<?xml version="1.0" standalone="no"?>
<!DOCTYPE svg PUBLIC "-//W3C//DTD SVG 1.1//EN" "http://www.w3.org/Graphics/SVG/1.1/DTD/svg11.dtd">
<svg width="140mm" height="122mm" viewBox="-70 -61 140 122" xmlns="http://www.w3.org/2000/svg" version="1.1">
<title>OpenSCAD Model</title>
<path d="
M 29.662,-33.6 L 26.1978,-39.6 L 36.6674,-57.7338 L 35,-60.6218 L -21.7348,-60.6218 L 11.7641,-2.59998
 z
M -14.2674,-42.488 L -21.1957,-42.488 L -31.6652,-60.6218 L -35,-60.6218 L -63.3674,-11.488 L 3.6304,-11.488
 z
M 47.3935,2.888 L 68.3326,2.888 L 70,-0 L 41.6326,-49.1337 L 8.13368,8.88802 L 43.9294,8.88802
 z
M -8.13368,-8.88802 L -43.9294,-8.88802 L -47.3935,-2.888 L -68.3326,-2.888 L -70,-0 L -41.6326,49.1337
 z
M -11.7641,2.59998 L -29.662,33.6 L -26.1978,39.6 L -36.6674,57.7338 L -35,60.6218 L 21.7348,60.6218
 z
M 63.3674,11.488 L -3.6304,11.488 L 14.2674,42.488 L 21.1957,42.488 L 31.6652,60.6218 L 35,60.6218
 z
" stroke="black" fill="lightgray" stroke-width="0.5"/>
</svg>
