<?xml version="1.0" standalone="no"?>
<!DOCTYPE svg PUBLIC "-//W3C//DTD SVG 1.1//EN" "http://www.w3.org/Graphics/SVG/1.1/DTD/svg11.dtd">
<svg width="138mm" height="120mm" viewBox="-69 -60 138 120" xmlns="http://www.w3.org/2000/svg" version="1.1">
<title>OpenSCAD Model</title>
<path d="
M 28.662,-34.6 L 25.7752,-39.6 L 35.7061,-56.8008 L 34.25,-59.3227 L -22.5621,-59.3227 L 10.1867,-2.59998
 z
M -15.6335,-42.122 L -21.407,-42.122 L -31.3379,-59.3227 L -34.25,-59.3227 L -62.6561,-10.122 L 2.84172,-10.1219
 z
M 47.1822,2.52197 L 67.0439,2.52197 L 68.5,-0 L 40.0939,-49.2007 L 7.345,7.52197 L 44.2954,7.52199
 z
M -7.345,-7.52197 L -44.2954,-7.52199 L -47.1822,-2.52197 L -67.0439,-2.52197 L -68.5,-0 L -40.0939,49.2007
 z
M -10.1867,2.59998 L -28.662,34.6 L -25.7752,39.6 L -35.7061,56.8008 L -34.25,59.3227 L 22.5621,59.3227
 z
M 62.6561,10.122 L -2.84172,10.1219 L 15.6335,42.122 L 21.407,42.122 L 31.3379,59.3227 L 34.25,59.3227
 z
" stroke="black" fill="lightgray" stroke-width="0.5"/>
</svg>
