<?xml version="1.0" standalone="no"?>
<!DOCTYPE svg PUBLIC "-//W3C//DTD SVG 1.1//EN" "http://www.w3.org/Graphics/SVG/1.1/DTD/svg11.dtd">
<svg width="134mm" height="118mm" viewBox="-67 -59 134 118" xmlns="http://www.w3.org/2000/svg" version="1.1">
<title>OpenSCAD Model</title>
<path d="
M 27.662,-35.6 L 25.3525,-39.6 L 34.7447,-55.8678 L 33.5,-58.0237 L -23.3895,-58.0237 L 8.60939,-2.59998
 z
M -16.9995,-41.7559 L -21.6183,-41.7559 L -31.0105,-58.0237 L -33.5,-58.0237 L -61.9447,-8.75594 L 2.05304,-8.75594
 z
M 46.9709,2.15594 L 65.7552,2.15594 L 67,-0 L 38.5552,-49.2677 L 6.55634,6.15596 L 44.6615,6.15596
 z
M -6.55634,-6.15596 L -44.6615,-6.15596 L -46.9709,-2.15594 L -65.7552,-2.15594 L -67,-0 L -38.5552,49.2677
 z
M -8.60939,2.59998 L -27.662,35.6 L -25.3525,39.6 L -34.7447,55.8678 L -33.5,58.0237 L 23.3895,58.0237
 z
M 61.9447,8.75594 L -2.05304,8.75594 L 16.9995,41.7559 L 21.6183,41.7559 L 31.0105,58.0237 L 33.5,58.0237
 z
" stroke="black" fill="lightgray" stroke-width="0.5"/>
</svg>
