<?xml version="1.0" standalone="no"?>
<!DOCTYPE svg PUBLIC "-//W3C//DTD SVG 1.1//EN" "http://www.w3.org/Graphics/SVG/1.1/DTD/svg11.dtd">
<svg width="132mm" height="114mm" viewBox="-66 -57 132 114" xmlns="http://www.w3.org/2000/svg" version="1.1">
<title>OpenSCAD Model</title>
<path d="
M 26.162,-36.6 L 24.4299,-39.6 L 33.5334,-55.3677 L 32.75,-56.7247 L -24.7168,-56.7247 L 6.53204,-2.59998
 z
M -18.6155,-40.9569 L -22.0796,-40.9569 L -31.1832,-56.7247 L -32.75,-56.7247 L -61.4834,-6.95691 L 1.01437,-6.95689
 z
M 46.5095,1.35692 L 64.7166,1.35692 L 65.5,-0 L 36.7666,-49.7677 L 5.51765,4.35692 L 44.7775,4.35692
 z
M -5.51765,-4.35692 L -44.7775,-4.35692 L -46.5095,-1.35692 L -64.7166,-1.35692 L -65.5,-0 L -36.7666,49.7677
 z
M -6.53204,2.59998 L -26.162,36.6 L -24.4299,39.6 L -33.5334,55.3677 L -32.75,56.7247 L 24.7168,56.7247
 z
M 61.4834,6.95691 L -1.01437,6.95689 L 18.6155,40.9569 L 22.0796,40.9569 L 31.1832,56.7247 L 32.75,56.7247
 z
" stroke="black" fill="lightgray" stroke-width="0.5"/>
</svg>
