<?xml version="1.0" standalone="no"?>
<!DOCTYPE svg PUBLIC "-//W3C//DTD SVG 1.1//EN" "http://www.w3.org/Graphics/SVG/1.1/DTD/svg11.dtd">
<svg width="128mm" height="112mm" viewBox="-64 -56 128 112" xmlns="http://www.w3.org/2000/svg" version="1.1">
<title>OpenSCAD Model</title>
<path d="
M 24.662,-37.6 L 23.5072,-39.6 L 32.3221,-54.8677 L 32,-55.4256 L -26.0442,-55.4256 L 4.45468,-2.59999
 z
M -20.2316,-40.1579 L -22.541,-40.1579 L -31.3558,-55.4256 L -32,-55.4256 L -61.0221,-5.15787 L -0.0243073,-5.15785
 z
M 46.0482,0.557877 L 63.6779,0.557861 L 64,-0 L 34.9779,-50.2677 L 4.47899,2.55786 L 44.8935,2.55788
 z
M -4.47899,-2.55786 L -44.8935,-2.55788 L -46.0482,-0.557877 L -63.6779,-0.557861 L -64,-0 L -34.9779,50.2677
 z
M -4.45468,2.59999 L -24.662,37.6 L -23.5072,39.6 L -32.3221,54.8677 L -32,55.4256 L 26.0442,55.4256
 z
M 61.0221,5.15787 L 0.0243073,5.15785 L 20.2316,40.1579 L 22.541,40.1579 L 31.3558,55.4256 L 32,55.4256
 z
" stroke="black" fill="lightgray" stroke-width="0.5"/>
</svg>
