<?xml version="1.0" standalone="no"?>
<!DOCTYPE svg PUBLIC "-//W3C//DTD SVG 1.1//EN" "http://www.w3.org/Graphics/SVG/1.1/DTD/svg11.dtd">
<svg width="124mm" height="108mm" viewBox="-62 -54 124 108" xmlns="http://www.w3.org/2000/svg" version="1.1">
<title>OpenSCAD Model</title>
<path d="
M 23.0119,-38.6 L 22.4346,-39.6 L 30.5715,-53.6936 L -27.2715,-53.6936 L 2.22734,-2.59999 z
M -21.9226,-39.2289 L -23.0773,-39.2289 L -31.2142,-53.3225 L -60.1358,-3.22893 L -1.13799,-3.22893 z
M 44.9345,0.628922 L 45.5119,-0.371048 L 61.7858,-0.371048 L 32.8642,-50.4646 L 3.36533,0.628937 z
M -3.36533,-0.628937 L -44.9345,-0.628922 L -45.5119,0.371048 L -61.7858,0.371048 L -32.8642,50.4646 z
M -2.22734,2.59999 L -23.0119,38.6 L -22.4346,39.6 L -30.5715,53.6936 L 27.2715,53.6936 z
M 60.1358,3.22893 L 1.13799,3.22893 L 21.9226,39.2289 L 23.0773,39.2289 L 31.2142,53.3225 z
" stroke="black" fill="lightgray" stroke-width="0.5"/>
</svg>
