<?xml version="1.0" standalone="no"?>
<!DOCTYPE svg PUBLIC "-//W3C//DTD SVG 1.1//EN" "http://www.w3.org/Graphics/SVG/1.1/DTD/svg11.dtd">
<svg width="176mm" height="154mm" viewBox="-88 -77 176 154" xmlns="http://www.w3.org/2000/svg" version="1.1">
<title>OpenSCAD Model</title>
<path d="
M 41.6619,-21.6 L 31.2696,-39.6 L 48.2033,-68.9299 L 44,-76.2102 L 30.4673,-76.2102 L 20.3,-58.6
 L 10.1327,-76.2102 L -11.8066,-76.2102 L 30.6923,-2.59999 z
M 2.12483,-46.8803 L -18.6598,-46.8803 L -35.5934,-76.2102 L -44,-76.2102 L -50.7664,-64.4905 L -40.5991,-46.8803
 L -60.9336,-46.8803 L -71.9033,-27.8803 L 13.0945,-27.8803 z
M 49.9294,7.2803 L 83.7967,7.28029 L 88,-0 L 81.2336,-11.7197 L 60.8991,-11.7197 L 71.0663,-29.3299
 L 60.0967,-48.3299 L 17.5978,25.2803 L 39.5371,25.2803 z
M -17.5978,-25.2803 L -39.5371,-25.2803 L -49.9294,-7.2803 L -83.7967,-7.28029 L -88,-0 L -81.2336,11.7197
 L -60.8991,11.7197 L -71.0663,29.3299 L -60.0967,48.3299 z
M -20.3,58.6 L -10.1327,76.2102 L 11.8066,76.2102 L -30.6923,2.59999 L -41.6619,21.6 L -31.2696,39.6
 L -48.2033,68.9299 L -44,76.2102 L -30.4673,76.2102 z
M 50.7664,64.4905 L 40.5991,46.8803 L 60.9336,46.8803 L 71.9033,27.8803 L -13.0945,27.8803 L -2.12483,46.8803
 L 18.6598,46.8803 L 35.5934,76.2102 L 44,76.2102 z
" stroke="black" fill="lightgray" stroke-width="0.5"/>
</svg>
