<?xml version="1.0" standalone="no"?>
<!DOCTYPE svg PUBLIC "-//W3C//DTD SVG 1.1//EN" "http://www.w3.org/Graphics/SVG/1.1/DTD/svg11.dtd">
<svg width="174mm" height="150mm" viewBox="-87 -75 174 150" xmlns="http://www.w3.org/2000/svg" version="1.1">
<title>OpenSCAD Model</title>
<path d="
M 40.662,-22.6 L 30.847,-39.6 L 47.242,-67.9969 L 43.25,-74.9112 L 28.1399,-74.9112 L 19.3,-59.6
 L 10.4601,-74.9112 L -12.6339,-74.9112 L 29.1149,-2.59999 z
M 0.75882,-46.5143 L -18.8711,-46.5143 L -35.2661,-74.9112 L -43.25,-74.9112 L -50.805,-61.8255 L -41.9651,-46.5143
 L -59.645,-46.5143 L -71.192,-26.5143 L 12.3058,-26.5143 z
M 49.7181,6.91428 L 82.508,6.91428 L 86.5,-0 L 78.9449,-13.0857 L 61.2651,-13.0857 L 70.105,-28.3969
 L 58.558,-48.3969 L 16.8091,23.9143 L 39.9031,23.9143 z
M -16.8091,-23.9143 L -39.9031,-23.9143 L -49.7181,-6.91428 L -82.508,-6.91428 L -86.5,-0 L -78.9449,13.0857
 L -61.2651,13.0857 L -70.105,28.3969 L -58.558,48.3969 z
M -19.3,59.6 L -10.4601,74.9112 L 12.6339,74.9112 L -29.1149,2.59999 L -40.662,22.6 L -30.847,39.6
 L -47.242,67.9969 L -43.25,74.9112 L -28.1399,74.9112 z
M 50.805,61.8255 L 41.9651,46.5143 L 59.645,46.5143 L 71.192,26.5143 L -12.3058,26.5143 L -0.75882,46.5143
 L 18.8711,46.5143 L 35.2661,74.9112 L 43.25,74.9112 z
" stroke="black" fill="lightgray" stroke-width="0.5"/>
</svg>
