<?xml version="1.0" standalone="no"?>
<!DOCTYPE svg PUBLIC "-//W3C//DTD SVG 1.1//EN" "http://www.w3.org/Graphics/SVG/1.1/DTD/svg11.dtd">
<svg width="170mm" height="148mm" viewBox="-85 -74 170 148" xmlns="http://www.w3.org/2000/svg" version="1.1">
<title>OpenSCAD Model</title>
<path d="
M 39.662,-23.6 L 30.4243,-39.6 L 46.2806,-67.0639 L 42.5,-73.6122 L 25.8126,-73.6122 L 18.3,-60.6
 L 10.7874,-73.6122 L -13.4613,-73.6122 L 27.5376,-2.59999 z
M -0.607208,-46.1483 L -19.0824,-46.1482 L -34.9387,-73.6122 L -42.5,-73.6122 L -50.8437,-59.1604 L -43.3311,-46.1482
 L -58.3563,-46.1482 L -70.4806,-25.1483 L 11.5171,-25.1482 z
M 49.5068,6.54825 L 81.2194,6.54825 L 85,-0 L 76.6563,-14.4517 L 61.6311,-14.4517 L 69.1437,-27.4639
 L 57.0193,-48.4639 L 16.0204,22.5482 L 40.2692,22.5483 z
M -16.0204,-22.5482 L -40.2692,-22.5483 L -49.5068,-6.54825 L -81.2194,-6.54825 L -85,-0 L -76.6563,14.4517
 L -61.6311,14.4517 L -69.1437,27.4639 L -57.0193,48.4639 z
M -18.3,60.6 L -10.7874,73.6122 L 13.4613,73.6122 L -27.5376,2.59999 L -39.662,23.6 L -30.4243,39.6
 L -46.2806,67.0639 L -42.5,73.6122 L -25.8126,73.6122 z
M 50.8437,59.1604 L 43.3311,46.1482 L 58.3563,46.1482 L 70.4806,25.1483 L -11.5171,25.1482 L 0.607208,46.1483
 L 19.0824,46.1482 L 34.9387,73.6122 L 42.5,73.6122 z
" stroke="black" fill="lightgray" stroke-width="0.5"/>
</svg>
