<?xml version="1.0" standalone="no"?>
<!DOCTYPE svg PUBLIC "-//W3C//DTD SVG 1.1//EN" "http://www.w3.org/Graphics/SVG/1.1/DTD/svg11.dtd">
<svg width="168mm" height="146mm" viewBox="-84 -73 168 146" xmlns="http://www.w3.org/2000/svg" version="1.1">
<title>OpenSCAD Model</title>
<path d="
M 38.662,-24.6 L 30.0017,-39.6 L 45.3193,-66.1309 L 41.75,-72.3131 L 23.4852,-72.3131 L 17.3,-61.6
 L 11.1148,-72.3131 L -14.2886,-72.3131 L 25.9602,-2.59999 z
M -1.97324,-45.7822 L -19.2937,-45.7822 L -34.6114,-72.3131 L -41.75,-72.3131 L -50.8824,-56.4953 L -44.6972,-45.7822
 L -57.0676,-45.7822 L -69.7693,-23.7822 L 10.7285,-23.7822 z
M 49.2954,6.18222 L 79.9307,6.18222 L 83.5,-0 L 74.3676,-15.8178 L 61.9971,-15.8178 L 68.1824,-26.5309
 L 55.4807,-48.5309 L 15.2318,21.1822 L 40.6352,21.1822 z
M -15.2318,-21.1822 L -40.6352,-21.1822 L -49.2954,-6.18222 L -79.9307,-6.18222 L -83.5,-0 L -74.3676,15.8178
 L -61.9971,15.8178 L -68.1824,26.5309 L -55.4807,48.5309 z
M -17.3,61.6 L -11.1148,72.3131 L 14.2886,72.3131 L -25.9602,2.59999 L -38.662,24.6 L -30.0017,39.6
 L -45.3193,66.1309 L -41.75,72.3131 L -23.4852,72.3131 z
M 50.8824,56.4953 L 44.6972,45.7822 L 57.0676,45.7822 L 69.7693,23.7822 L -10.7285,23.7822 L 1.97324,45.7822
 L 19.2937,45.7822 L 34.6114,72.3131 L 41.75,72.3131 z
" stroke="black" fill="lightgray" stroke-width="0.5"/>
</svg>
