<?xml version="1.0" standalone="no"?>
<!DOCTYPE svg PUBLIC "-//W3C//DTD SVG 1.1//EN" "http://www.w3.org/Graphics/SVG/1.1/DTD/svg11.dtd">
<svg width="164mm" height="144mm" viewBox="-82 -72 164 144" xmlns="http://www.w3.org/2000/svg" version="1.1">
<title>OpenSCAD Model</title>
<path d="
M 37.6619,-25.6 L 29.579,-39.6 L 44.358,-65.1979 L 41,-71.0141 L 21.1579,-71.0141 L 16.3,-62.6
 L 11.4421,-71.0141 L -15.116,-71.0141 L 24.3829,-2.59999 z
M -3.33926,-45.4162 L -19.5051,-45.4162 L -34.284,-71.0141 L -41,-71.0141 L -50.9211,-53.8303 L -46.0632,-45.4162
 L -55.7789,-45.4162 L -69.058,-22.4162 L 9.93977,-22.4162 z
M 49.0841,5.81619 L 78.642,5.81619 L 82,-0 L 72.0789,-17.1838 L 62.3632,-17.1838 L 67.221,-25.5979
 L 53.942,-48.5979 L 14.4431,19.8162 L 41.0012,19.8162 z
M -14.4431,-19.8162 L -41.0012,-19.8162 L -49.0841,-5.81619 L -78.642,-5.81619 L -82,-0 L -72.0789,17.1838
 L -62.3632,17.1838 L -67.221,25.5979 L -53.942,48.5979 z
M -16.3,62.6 L -11.4421,71.0141 L 15.116,71.0141 L -24.3829,2.59999 L -37.6619,25.6 L -29.579,39.6
 L -44.358,65.1979 L -41,71.0141 L -21.1579,71.0141 z
M 50.9211,53.8303 L 46.0632,45.4162 L 55.7789,45.4162 L 69.058,22.4162 L -9.93977,22.4162 L 3.33926,45.4162
 L 19.5051,45.4162 L 34.284,71.0141 L 41,71.0141 z
" stroke="black" fill="lightgray" stroke-width="0.5"/>
</svg>
