<?xml version="1.0" standalone="no"?>
<!DOCTYPE svg PUBLIC "-//W3C//DTD SVG 1.1//EN" "http://www.w3.org/Graphics/SVG/1.1/DTD/svg11.dtd">
<svg width="162mm" height="140mm" viewBox="-81 -70 162 140" xmlns="http://www.w3.org/2000/svg" version="1.1">
<title>OpenSCAD Model</title>
<path d="
M 36.662,-26.6 L 29.1564,-39.6 L 43.3967,-64.2649 L 40.25,-69.715 L 18.8305,-69.715 L 15.3,-63.6
 L 11.7695,-69.715 L -15.9433,-69.715 L 22.8055,-2.59998 z
M -4.70528,-45.0502 L -19.7164,-45.0502 L -33.9567,-69.715 L -40.25,-69.715 L -50.9597,-51.1652 L -47.4292,-45.0502
 L -54.4902,-45.0502 L -68.3467,-21.0502 L 9.15112,-21.0502 z
M 48.8728,5.45018 L 77.3533,5.45018 L 80.5,-0 L 69.7902,-18.5498 L 62.7292,-18.5498 L 66.2597,-24.6649
 L 52.4033,-48.6649 L 13.6544,18.4502 L 41.3672,18.4502 z
M -13.6544,-18.4502 L -41.3672,-18.4502 L -48.8728,-5.45018 L -77.3533,-5.45018 L -80.5,-0 L -69.7902,18.5498
 L -62.7292,18.5498 L -66.2597,24.6649 L -52.4033,48.6649 z
M -15.3,63.6 L -11.7695,69.715 L 15.9433,69.715 L -22.8055,2.59998 L -36.662,26.6 L -29.1564,39.6
 L -43.3967,64.2649 L -40.25,69.715 L -18.8305,69.715 z
M 50.9597,51.1652 L 47.4292,45.0502 L 54.4902,45.0502 L 68.3467,21.0502 L -9.15112,21.0502 L 4.70528,45.0502
 L 19.7164,45.0502 L 33.9567,69.715 L 40.25,69.715 z
" stroke="black" fill="lightgray" stroke-width="0.5"/>
</svg>
