<?xml version="1.0" standalone="no"?>
<!DOCTYPE svg PUBLIC "-//W3C//DTD SVG 1.1//EN" "http://www.w3.org/Graphics/SVG/1.1/DTD/svg11.dtd">
<svg width="158mm" height="138mm" viewBox="-79 -69 158 138" xmlns="http://www.w3.org/2000/svg" version="1.1">
<title>OpenSCAD Model</title>
<path d="
M 35.662,-27.6 L 28.7337,-39.6 L 42.4353,-63.3318 L 39.5,-68.416 L 16.5032,-68.416 L 14.3,-64.6
 L 12.0968,-68.416 L -16.7707,-68.416 L 21.2282,-2.59999 z
M -6.0713,-44.6841 L -19.9277,-44.6841 L -33.6293,-68.416 L -39.5,-68.416 L -50.9984,-48.5002 L -48.7952,-44.6841
 L -53.2016,-44.6841 L -67.6353,-19.6841 L 8.36243,-19.6841 z
M 48.6615,5.08415 L 76.0647,5.08415 L 79,-0 L 67.5016,-19.9158 L 63.0952,-19.9158 L 65.2984,-23.7318
 L 50.8646,-48.7318 L 12.8657,17.0841 L 41.7333,17.0842 z
M -12.8657,-17.0841 L -41.7333,-17.0842 L -48.6615,-5.08415 L -76.0647,-5.08415 L -79,-0 L -67.5016,19.9158
 L -63.0952,19.9158 L -65.2984,23.7318 L -50.8646,48.7318 z
M -14.3,64.6 L -12.0968,68.416 L 16.7707,68.416 L -21.2282,2.59999 L -35.662,27.6 L -28.7337,39.6
 L -42.4353,63.3318 L -39.5,68.416 L -16.5032,68.416 z
M 50.9984,48.5002 L 48.7952,44.6841 L 53.2016,44.6841 L 67.6353,19.6841 L -8.36243,19.6841 L 6.0713,44.6841
 L 19.9277,44.6841 L 33.6293,68.416 L 39.5,68.416 z
" stroke="black" fill="lightgray" stroke-width="0.5"/>
</svg>
