<?xml version="1.0" standalone="no"?>
<!DOCTYPE svg PUBLIC "-//W3C//DTD SVG 1.1//EN" "http://www.w3.org/Graphics/SVG/1.1/DTD/svg11.dtd">
<svg width="156mm" height="136mm" viewBox="-78 -68 156 136" xmlns="http://www.w3.org/2000/svg" version="1.1">
<title>OpenSCAD Model</title>
<path d="
M 34.662,-28.6 L 28.3111,-39.6 L 41.474,-62.3988 L 38.75,-67.117 L 14.1758,-67.117 L 13.3,-65.6
 L 12.4242,-67.117 L -17.598,-67.117 L 19.6508,-2.59999 z
M -7.4373,-44.3181 L -20.1391,-44.3181 L -33.302,-67.117 L -38.75,-67.117 L -51.0371,-45.8351 L -50.1612,-44.3181
 L -51.9129,-44.3181 L -66.924,-18.3181 L 7.57376,-18.3181 z
M 48.4501,4.71811 L 74.776,4.71811 L 77.5,-0 L 65.2129,-21.2819 L 63.4612,-21.2819 L 64.3371,-22.7988
 L 49.326,-48.7988 L 12.0771,15.7181 L 42.0993,15.7182 z
M -12.0771,-15.7181 L -42.0993,-15.7182 L -48.4501,-4.71811 L -74.776,-4.71811 L -77.5,-0 L -65.2129,21.2819
 L -63.4612,21.2819 L -64.3371,22.7988 L -49.326,48.7988 z
M -13.3,65.6 L -12.4242,67.117 L 17.598,67.117 L -19.6508,2.59999 L -34.662,28.6 L -28.3111,39.6
 L -41.474,62.3988 L -38.75,67.117 L -14.1758,67.117 z
M 51.0371,45.8351 L 50.1612,44.3181 L 51.9129,44.3181 L 66.924,18.3181 L -7.57376,18.3181 L 7.4373,44.3181
 L 20.1391,44.3181 L 33.302,67.117 L 38.75,67.117 z
" stroke="black" fill="lightgray" stroke-width="0.5"/>
</svg>
