<?xml version="1.0" encoding="UTF-8" standalone="no"?>
<!-- Created with Inkscape (http://www.inkscape.org/) -->

<svg
   width="1920mm"
   height="1080mm"
   viewBox="0 0 1920 1080"
   version="1.1"
   id="svg5"
   inkscape:version="1.1.2 (b8e25be833, 2022-02-05)"
   sodipodi:docname="inkscape.svg"
   inkscape:export-filename="D:\Projects\nixos-boot\src\theme\nixos-32.png"
   inkscape:export-xdpi="25.400002"
   inkscape:export-ydpi="25.400002"
   xmlns:inkscape="http://www.inkscape.org/namespaces/inkscape"
   xmlns:sodipodi="http://sodipodi.sourceforge.net/DTD/sodipodi-0.dtd"
   xmlns="http://www.w3.org/2000/svg"
   xmlns:svg="http://www.w3.org/2000/svg">
  <sodipodi:namedview
     id="namedview7"
     pagecolor="#181926"
     bordercolor="#111111"
     borderopacity="1"
     inkscape:pageshadow="0"
     inkscape:pageopacity="1"
     inkscape:pagecheckerboard="1"
     inkscape:document-units="px"
     showgrid="false"
     inkscape:zoom="0.056568542"
     inkscape:cx="6355.1222"
     inkscape:cy="-1891.5106"
     inkscape:window-width="1440"
     inkscape:window-height="837"
     inkscape:window-x="-8"
     inkscape:window-y="-8"
     inkscape:window-maximized="1"
     inkscape:current-layer="layer1" />
  <defs
     id="defs2">
    <linearGradient
       id="blue"
       inkscape:swatch="solid"
       gradientTransform="matrix(-1,0,0,1,18424.143,185401.42)">
      <stop
         style="stop-color:#8aadf4;stop-opacity:1;"
         offset="0"
         id="stop899" />
    </linearGradient>
    <linearGradient
       id="mauve"
       inkscape:swatch="solid"
       gradientTransform="matrix(-1,0,0,1,18424.142,185401.42)">
      <stop
         style="stop-color:#c6a0f6;stop-opacity:1;"
         offset="0"
         id="stop889" />
    </linearGradient>
    <inkscape:perspective
       sodipodi:type="inkscape:persp3d"
       inkscape:vp_x="0 : 540 : 1"
       inkscape:vp_y="0 : 1000 : 0"
       inkscape:vp_z="1920 : 540 : 1"
       inkscape:persp3d-origin="960 : 360 : 1"
       id="perspective887" />
  </defs>
  <g
     inkscape:label="Layer 1"
     inkscape:groupmode="layer"
     id="layer1">
    <g
       id="g1065"
       transform="matrix(-1,0,0,1,3853.7403,-1640.3499)">
      <path
         d="M 1067.7648,667.61536 H 895.40006 l 17.04318,29.51966 h 138.27856 z"
         id="path839"
         style="fill:url(#mauve);fill-opacity:1" />
      <path
         d="m 903.36453,697.13441 -86.18237,-149.272 -17.043,29.5196 69.13908,119.75301 z"
         id="path837"
         style="fill:url(#blue);fill-opacity:1" />
      <path
         d="m 1141.4436,540.00004 -17.043,-29.51948 -86.1827,149.27224 h 34.0866 z"
         id="path835"
         style="fill:url(#blue);fill-opacity:1" />
      <path
         d="m 881.78212,420.24728 h -34.0866 l -69.13907,119.75276 17.043,29.51948 z"
         id="path833"
         style="fill:url(#mauve);fill-opacity:1" />
      <path
         d="M 1007.5568,382.865 H 869.27824 l -17.043,29.51972 H 1024.6 Z"
         id="path831"
         style="fill:url(#blue);fill-opacity:1" />
      <path
         d="m 1119.8609,502.61806 -69.1391,-119.75306 -34.0863,6.1e-4 86.1824,149.27205 z"
         id="path1160"
         style="fill:url(#mauve);fill-opacity:1" />
    </g>
    <g
       id="g1231"
       transform="translate(-3373.8372,-4171.1736)"
       inkscape:export-filename="D:\Projects\nixos-boot\src\theme\nixos-0.png"
       inkscape:export-xdpi="32"
       inkscape:export-ydpi="32">
      <path
         d="m 1264.3981,959.09482 -76.5943,-132.6648 153.1886,-6e-4 59.0374,-102.2557 v -0.012 H 871.73619 l 59.0454,102.2695 h 138.93091 l 107.8107,186.73378 h 55.6584 z"
         id="path1169"
         style="fill:url(#blue)" />
      <path
         d="m 825.84579,880.49842 76.5942,132.66478 h 118.07511 l 0.012,-0.01 -264.14691,-457.51628 -59.0453,102.2702 69.4654,120.3178 -107.8107,186.7338 27.8289,48.20108 h 62.4329 z"
         id="path1167"
         style="fill:url(#mauve)" />
      <path
         d="m 844.64419,371.47962 h -118.0907 l -69.466,120.3181 H 441.46655 l -27.8295,48.2014 31.21644,54.0686 h 153.1886 l -76.5943,132.6652 59.0375,102.2557 0.012,0.01 z"
         id="path1165"
         style="fill:url(#blue)" />
      <path
         d="m 1262.9128,588.20042 h 215.6207 l 27.8295,-48.2013 -31.2164,-54.0686 h -153.1885 l 76.5942,-132.66521 -59.0374,-102.25568 -0.012,-0.006 -264.1468,457.51619 h 118.0907 z"
         id="path1163"
         style="fill:url(#mauve)" />
      <path
         d="M 989.21859,253.56879 H 850.28769 L 742.47699,66.834994 h -55.6584 l -31.2165,54.068406 76.5943,132.66479 -153.1886,6e-4 -59.0375,102.25568 v 0.012 H 1048.264 Z"
         id="path1161"
         style="fill:url(#mauve)" />
      <path
         d="M 1222.6653,422.08772 1153.1998,301.7699 1261.0105,115.0361 1233.1816,66.834994 h -62.4329 L 1094.1544,199.49978 1017.5602,66.834994 H 899.48509 l -0.012,0.006 L 1163.62,524.35722 Z"
         id="path1149"
         style="fill:url(#blue)" />
    </g>
    <g
       id="g1362"
       inkscape:export-filename="D:\Projects\nixos-boot\src\theme\nixos-2.png"
       inkscape:export-xdpi="25.400002"
       inkscape:export-ydpi="25.400002"
       transform="translate(-1239.6855,-4120.1091)">
      <path
         d="m 1265.4311,928.00081 -61.1706,-105.95 h 122.3406 l 65.9981,-114.3117 H 881.21822 l 65.9982,114.3117 h 125.04848 l 101.8793,176.4604 h 50.5775 z"
         id="path1300"
         style="fill:url(#blue)" />
      <path
         d="m 837.86702,892.56121 61.1706,105.95 h 131.99568 l -255.69048,-442.8685 -65.9975,114.3116 62.5242,108.2953 -101.8799,176.4604 25.2887,43.8012 h 81.4182 z"
         id="path1298"
         style="fill:url(#mauve)" />
      <path
         d="m 854.12462,387.90361 h -131.9957 l -62.5242,108.2952 h -203.7593 l -25.2888,43.8012 40.7094,70.5104 h 122.3405 l -61.1699,105.9501 65.9975,114.3116 z"
         id="path1296"
         style="fill:url(#blue)" />
      <path
         d="m 1260.3954,583.80121 h 203.7593 l 25.2887,-43.8012 -40.7094,-70.5104 h -122.3405 l 61.17,-105.9501 -65.9976,-114.3116 -255.6904,442.8686 h 131.9956 z"
         id="path1294"
         style="fill:url(#mauve)" />
      <path
         d="M 972.78432,257.94931 H 847.73522 L 745.85582,81.488809 h -50.5775 l -40.7094,70.510401 61.1706,105.9501 h -122.3405 l -65.9982,114.3116 h 511.38098 z"
         id="path1292"
         style="fill:url(#mauve)" />
      <path
         d="m 1210.6548,410.04571 -62.5243,-108.2952 101.88,-176.4605 -25.2888,-43.801201 h -81.4181 L 1082.133,187.43881 1020.9624,81.488809 H 888.96682 L 1144.6572,524.35741 Z"
         id="path1281"
         style="fill:url(#blue)" />
    </g>
    <g
       id="g1447"
       transform="translate(-952.6896,-7574.2118)"
       inkscape:export-filename="D:\Projects\nixos-boot\src\theme\nixos-3.png"
       inkscape:export-xdpi="25.400002"
       inkscape:export-ydpi="25.400002">
      <path
         d="m 3060.7029,4350.0698 -45.2032,-78.2942 h 90.4064 l 72.9517,-126.356 -493.3787,-6e-4 72.9517,126.3572 111.1649,-6e-4 95.4071,165.2504 h 45.4962 z"
         id="path1385"
         style="fill:url(#blue)" />
      <path
         d="m 2644.6665,4358.7318 45.2032,78.2942 h 145.904 l -246.6897,-427.2792 -72.9523,126.3567 55.5831,96.2717 -95.4071,165.2498 22.7478,39.401 h 100.4078 z"
         id="path1383"
         style="fill:url(#mauve)" />
      <path
         d="m 2658.3828,3858.4305 -145.9046,-6e-4 -55.5825,96.2724 h -190.8142 l -22.7478,39.4004 50.2039,86.9556 h 90.4064 l -45.2032,78.2942 72.9523,126.3566 z"
         id="path1381"
         style="fill:url(#blue)" />
      <path
         d="m 3052.6588,4033.5037 h 190.8142 l 22.7478,-39.401 -50.2039,-86.9557 h -90.4064 l 45.2032,-78.2941 -72.9523,-126.3567 -246.6897,427.2786 145.9046,6e-4 z"
         id="path1379"
         style="fill:url(#mauve)" />
      <path
         d="m 2751.1237,3716.4291 -111.1649,6e-4 -95.4071,-165.2504 h -45.4962 l -50.2039,86.9563 45.2032,78.2941 h -90.4064 l -72.9517,126.3561 493.3787,6e-4 z"
         id="path1377"
         style="fill:url(#mauve)" />
      <path
         d="m 2993.4228,3852.1019 -55.5831,-96.2717 95.4071,-165.2499 -22.7478,-39.401 h -100.4078 l -45.2032,78.2942 -45.2031,-78.2942 h -145.9041 l 246.6897,427.2792 z"
         id="path1366"
         style="fill:url(#blue)" />
    </g>
    <g
       id="g1532"
       transform="translate(2851.8613,-4120.1091)"
       inkscape:export-filename="D:\Projects\nixos-boot\src\theme\nixos-4.png"
       inkscape:export-xdpi="25.400002"
       inkscape:export-ydpi="25.400002">
      <path
         d="m 1266.4226,863.92931 -29.2329,-50.6327 h 58.4652 l 79.9084,-138.4048 H 900.18657 l 79.9077,138.4048 h 97.27943 l 88.9335,154.038 h 40.4142 z"
         id="path1470"
         style="fill:url(#blue)" />
      <path
         d="m 861.91277,916.70191 29.2329,50.6327 h 159.81613 l -237.68873,-411.6889 -79.9077,138.4049 48.6397,84.2464 -88.9342,154.038 20.2071,34.9996 h 119.4019 z"
         id="path1468"
         style="fill:url(#mauve)" />
      <path
         d="m 873.08687,420.75401 h -159.8161 l -48.6397,84.2464 h -177.8676 l -20.2072,34.9996 59.7013,103.4053 h 58.4652 l -29.2323,50.6327 79.9077,138.4048 z"
         id="path1466"
         style="fill:url(#blue)" />
      <path
         d="m 1255.3683,574.99961 h 177.8685 l 20.207,-34.9996 -59.702,-103.4053 h -58.4652 l 29.2324,-50.6327 -79.9078,-138.4048 -237.6886,411.6888 h 159.816 z"
         id="path1464"
         style="fill:url(#mauve)" />
      <path
         d="m 939.90567,266.70341 h -97.2799 l -88.9335,-154.038 h -40.4143 l -59.7012,103.4053 29.2329,50.6327 h -58.4652 l -79.9083,138.4048 h 475.37733 z"
         id="path1462"
         style="fill:url(#mauve)" />
      <path
         d="m 1186.6341,385.94941 -48.6397,-84.2465 88.9341,-154.0379 -20.2071,-34.9996 h -119.4019 l -29.2329,50.6327 -29.2329,-50.6327 H 869.03757 l 237.68873,411.6888 z"
         id="path1451"
         style="fill:url(#blue)" />
    </g>
    <g
       id="g1617"
       transform="translate(4770.6982,-4087.3107)">
      <path
         d="m 1266.922,831.88715 -13.2594,-22.9663 h 26.5188 L 1367.0473,658.4642 H 909.67287 l 86.8659,150.45665 h 83.39153 l 82.4598,142.82489 h 35.3315 z"
         id="path1555"
         style="fill:url(#blue)" />
      <path
         d="m 873.93887,928.78003 13.2594,22.96571 h 173.73233 l -228.68753,-396.09832 -86.8664,150.45677 41.6963,72.21919 -82.4599,142.82429 17.6655,30.59807 h 138.4008 z"
         id="path1553"
         style="fill:url(#mauve)" />
      <path
         d="m 882.57087,437.18327 -173.7329,-6e-4 -41.6958,72.21979 h -164.9197 l -17.6655,30.59747 69.2005,119.8587 h 26.5189 l -13.2595,22.9657 86.8665,150.45665 z"
         id="path1551"
         style="fill:url(#blue)" />
      <path
         d="m 1252.8579,570.598 h 164.9198 l 17.6654,-30.59807 -69.2005,-119.85858 h -26.5188 l 13.2594,-22.96571 -86.8664,-150.45665 -228.6875,396.09772 173.7329,6e-4 z"
         id="path1549"
         style="fill:url(#mauve)" />
      <path
         d="m 923.46137,271.07913 h -83.3915 l -82.4599,-142.82486 h -35.3314 l -69.2005,119.85855 13.2595,22.96631 h -26.5189 l -86.8659,150.45665 h 457.37443 z"
         id="path1547"
         style="fill:url(#mauve)" />
      <path
         d="m 1174.6235,373.89579 -41.6964,-72.2192 82.4599,-142.82432 -17.6654,-30.598 h -138.4009 l -13.2594,22.9657 -13.2595,-22.9657 H 859.06947 L 1087.757,524.35244 Z"
         id="path1536"
         style="fill:url(#blue)" />
    </g>
    <g
       id="g1702"
       transform="translate(-2301.6478,-3308.7112)">
      <path
         d="M 1358.5335,642.03452 H 919.16062 l 93.82638,162.51269 h 69.5018 l 75.9849,131.61 h 30.2479 z"
         id="path1640"
         style="fill:url(#blue)" />
      <path
         d="m 851.21582,555.6494 -93.8264,162.51268 34.7506,60.18989 -75.9855,131.61 15.1239,26.19524 h 339.62388 z"
         id="path1638"
         style="fill:url(#mauve)" />
      <path
         d="m 892.05522,453.6149 h -187.6534 l -34.7506,60.1899 H 517.68082 L 502.55692,540 672.36882,834.12272 Z"
         id="path1636"
         style="fill:url(#blue)" />
      <path
         d="m 1250.3488,566.1953 h 151.9704 L 1417.4431,540 1247.6312,245.8773 1027.9447,626.38515 h 187.6535 z"
         id="path1634"
         style="fill:url(#mauve)" />
      <path
         d="m 907.01242,275.4528 h -69.5012 l -75.985,-131.61 h -30.2478 l -169.8119,294.1227 h 439.37228 z"
         id="path1632"
         style="fill:url(#mauve)" />
      <path
         d="m 1162.6106,361.838 -34.7506,-60.1899 75.9855,-131.61 -15.1239,-26.1953 H 849.09772 l 219.68648,380.5078 z"
         id="path1621"
         style="fill:url(#blue)" />
    </g>
    <g
       id="g1851"
       transform="translate(-149.90934,-3265.4392)">
      <path
         d="m 1350.021,625.60175 -421.37013,-6e-4 100.78963,174.57336 h 55.6083 l 69.5096,120.39422 h 25.1633 z"
         id="path1725"
         style="fill:url(#blue)" />
      <path
         d="m 870.19227,555.65129 -100.7902,174.57348 27.8047,48.15817 -69.5097,120.39422 12.5813,21.79157 h 340.59933 z"
         id="path1723"
         style="fill:url(#mauve)" />
      <path
         d="m 901.54207,470.04966 h -201.5805 l -27.8041,48.15853 -139.0194,6e-5 L 520.55677,540 690.85667,834.96759 Z"
         id="path1721"
         style="fill:url(#blue)" />
      <path
         d="m 1247.8426,561.79182 139.0194,-6e-5 L 1399.4433,540 1229.1434,245.03243 1018.458,609.95035 h 201.5805 z"
         id="path1719"
         style="fill:url(#mauve)" />
      <path
         d="m 890.55957,279.8255 h -55.6083 l -69.5096,-120.39422 h -25.1633 l -170.2993,294.96698 421.3707,6e-4 z"
         id="path1717"
         style="fill:url(#mauve)" />
      <path
         d="m 1150.598,349.77523 -27.8047,-48.15816 69.5097,-120.39422 -12.5813,-21.79157 H 839.12237 l 210.68543,364.91744 z"
         id="path1706"
         style="fill:url(#blue)" />
    </g>
    <g
       id="g1955"
       transform="translate(354.76363,-4807.085)">
      <path
         d="m 2849.6211,2199.149 h -403.3683 l 107.7559,186.6392 h 41.7126 l 63.0329,109.1767 h 20.0776 z"
         id="path1893"
         style="fill:url(#blue)" />
      <path
         d="m 2397.2829,2145.6377 -107.7565,186.6392 20.8567,36.1237 -63.0335,109.1767 10.0388,17.3876 h 341.5787 z"
         id="path1891"
         style="fill:url(#mauve)" />
      <path
         d="m 2419.1402,2076.4728 h -215.5123 l -20.8561,36.1237 h -126.0663 l -10.0388,17.3876 170.7893,295.8153 z"
         id="path1889"
         style="fill:url(#blue)" />
      <path
         d="m 2753.4483,2147.3716 h 126.0664 l 10.0388,-17.3875 -170.7894,-295.8154 -201.6841,349.3272 h 215.5123 z"
         id="path1887"
         style="fill:url(#mauve)" />
      <path
         d="m 2382.2115,1874.18 h -41.7127 l -63.0329,-109.1768 h -20.0775 l -170.7894,295.816 h 403.3683 z"
         id="path1885"
         style="fill:url(#mauve)" />
      <path
         d="m 2646.6937,1927.6912 -20.8566,-36.1237 63.0335,-109.1767 -10.0388,-17.3876 h -341.5787 l 201.6842,349.3279 z"
         id="path1855"
         style="fill:url(#blue)" />
    </g>
    <g
       id="g2242"
       transform="translate(5377.3234,-3711.3091)">
      <path
         d="m -243.0536,1084.9264 h -385.36535 l 114.72575,198.7107 h 27.81232 l 56.55556,97.9574 h 14.99064 z"
         id="path2161"
         style="fill:url(#blue)" />
      <path
         d="m -667.89832,1047.858 -114.72617,198.7111 13.90676,24.0862 -56.55556,97.9573 7.49502,12.9819 h 342.56275 z"
         id="path2159"
         style="fill:url(#mauve)" />
      <path
         d="m -655.53578,995.13367 h -229.45198 l -13.90616,24.08633 h -113.11038 l -7.4957,12.9821 171.28161,296.6677 z"
         id="path2157"
         style="fill:url(#blue)" />
      <path
         d="m -333.21903,1045.1842 h 113.11053 l 7.49562,-12.9821 -171.28168,-296.66782 -192.68261,333.73622 h 229.45198 z"
         id="path2155"
         style="fill:url(#mauve)" />
      <path
         d="m -718.41975,780.76693 h -27.81232 l -56.55556,-97.95731 h -14.99064 L -989.05923,979.47777 H -603.694 Z"
         id="path2153"
         style="fill:url(#mauve)" />
      <path
         d="m -449.48846,817.83503 -13.90677,-24.08619 56.55557,-97.95736 -7.49502,-12.98186 h -342.56275 l 192.68279,333.73658 z"
         id="path2069"
         style="fill:url(#blue)" />
    </g>
    <g
       id="g2345"
       transform="translate(-2191.9939,-2412.3405)">
      <path
         d="m 146.55691,587.25434 -367.36275,-1.2e-4 121.699624,210.78986 h 13.908494 l 53.087638,91.9506 h 3.879732 z"
         id="path2265"
         style="fill:url(#blue)" />
      <path
         d="m -247.78075,571.84936 -121.69974,210.78962 6.95485,12.04512 -53.08825,91.95059 1.93987,3.35999 h 349.574521 z"
         id="path2263"
         style="fill:url(#mauve)" />
      <path
         d="m -247.9271,540.78591 -243.3987,-1.2e-4 -6.95425,12.04518 -106.17588,6e-5 -1.93986,3.35974 174.78726,302.74016 z"
         id="path2261"
         style="fill:url(#blue)" />
      <path
         d="m 56.375797,559.55064 106.175883,-6e-5 1.93986,-3.35981 -174.787259,-302.7401 -183.681431,318.14496 243.3987,1.2e-4 z"
         id="path2259"
         style="fill:url(#mauve)" />
      <path
         d="m -342.7981,314.33752 h -13.90849 l -53.08764,-91.95059 h -3.87973 l -174.78726,302.74028 367.36269,1.2e-4 z"
         id="path2257"
         style="fill:url(#mauve)" />
      <path
         d="m -72.423818,329.74262 -6.954849,-12.04511 53.088241,-91.9506 -1.939866,-3.35998 H -377.80481 l 183.68125,318.14525 z"
         id="path2246"
         style="fill:url(#blue)" />
    </g>
    <g
       id="g2430"
       transform="translate(-1370.0238,-4313.3255)">
      <path
         d="M 1039.2458,2459.5324 867.21076,2756.8891 H 1211.2806 Z"
         id="path2368"
         style="fill:url(#mauve)" />
      <path
         d="M 1025.6535,2451.7011 H 681.58394 l 172.03493,297.3567 z"
         id="path2366"
         style="fill:url(#blue)" />
      <path
         d="m 1396.9074,2451.7011 h -344.0695 l 172.0346,297.3567 z"
         id="path2364"
         style="fill:url(#blue)" />
      <path
         d="M 853.61887,2138.6819 681.58394,2436.0392 H 1025.6534 Z"
         id="path2362"
         style="fill:url(#mauve)" />
      <path
         d="m 1224.8725,2138.6819 -172.0346,297.3567 h 344.0695 z"
         id="path2360"
         style="fill:url(#mauve)" />
      <path
         d="M 1211.2806,2130.8506 H 867.21076 l 172.03484,297.3567 z"
         id="path2349"
         style="fill:url(#blue)" />
    </g>
    <g
       id="g2609"
       transform="matrix(-1,0,0,1,5220.6323,-3822.9951)">
      <path
         style="fill:url(#mauve)"
         d="m 3638.7184,2258.2762 -210.2501,-250.5669 -96.4476,264.9859 h 298.3731 z"
         id="path2565" />
      <path
         style="fill:url(#blue)"
         d="m 3796.1154,1985.6569 -8.3252,-14.419 -322.1225,56.7992 181.2615,216.0184 z"
         id="path2563" />
      <path
         style="fill:url(#blue)"
         d="m 3315.6004,2272.6952 111.8724,-307.366 -277.7085,48.9674 149.1862,258.3986 z"
         id="path2561" />
      <path
         style="fill:url(#mauve)"
         d="m 3463.6766,1943.2774 -181.2615,-216.0191 -149.1862,258.3986 8.3252,14.4196 z"
         id="path2559" />
      <path
         style="fill:url(#blue)"
         d="m 3597.3236,1698.6186 h -298.3731 l -8.3246,14.419 210.2507,250.5675 z"
         id="path2557" />
      <path
         style="fill:url(#mauve)"
         d="m 3779.58,1957.0172 -149.1862,-258.3986 h -16.6499 l -111.8718,307.366 z"
         id="path2434" />
    </g>
    <g
       id="g2694"
       transform="translate(2818.5736,-2363.7589)">
      <path
         style="fill:url(#mauve)"
         d="m 793.16072,773.14064 231.23368,-194.0281 39.1346,221.9454 H 809.27832 Z"
         id="path2650" />
      <path
         style="fill:url(#blue)"
         d="m 658.55652,539.99994 16.1176,-27.9169 283.6505,103.2404 -172.6427,144.8642 z"
         id="path2648" />
      <path
         style="fill:url(#blue)"
         d="m 1026.0698,503.78934 211.7773,77.0806 -127.1253,220.188 h -32.2358 z"
         id="path2646" />
      <path
         style="fill:url(#mauve)"
         d="m 961.67542,464.67648 172.64278,-144.86409 127.1253,220.18755 -16.1176,27.917 z"
         id="path2644" />
      <path
         style="fill:url(#blue)"
         d="m 856.47112,278.94207 h 254.25068 l 16.1175,27.91729 -231.23358,194.02798 z"
         id="path2642" />
      <path
         style="fill:url(#mauve)"
         d="m 682.15292,499.13004 127.1254,-220.18797 h 32.2357 l 52.4162,297.26857 z"
         id="path2613" />
    </g>
    <g
       id="g2779"
       transform="translate(4656.0814,-2345.7421)">
      <path
         style="fill:url(#mauve)"
         d="M 804.05442,740.0486 1041.6919,602.84828 V 775.07689 H 824.27812 Z"
         id="path2735" />
      <path
         style="fill:url(#blue)"
         d="m 688.55632,540.00001 20.2237,-35.0286 237.63748,137.20002 -149.15398,86.11461 z"
         id="path2733" />
      <path
         style="fill:url(#blue)"
         d="m 1055.2743,500.67687 149.1541,86.11431 -108.7066,188.28571 h -40.4475 z"
         id="path2731" />
      <path
         style="fill:url(#mauve)"
         d="m 973.5818,437.8286 149.1547,-86.11461 108.7072,188.28602 -20.2238,35.02861 z"
         id="path2729" />
      <path
         style="fill:url(#blue)"
         d="m 878.30812,304.92313 h 217.41368 l 20.2238,35.0283 -237.63748,137.20032 z"
         id="path2727" />
      <path
         style="fill:url(#mauve)"
         d="m 715.57162,493.20885 108.7065,-188.28572 h 40.4476 v 274.40003 z"
         id="path2698" />
    </g>
    <g
       id="g2864"
       transform="matrix(-1,0,0,1,-291.70345,-1575.339)">
      <path
         d="m 1102.1726,711.94137 -229.03415,-83.36189 21.25,120.51637 h 186.33315 z"
         id="path2802"
         style="fill:url(#mauve)" />
      <path
         d="m 839.85735,509.06528 -93.74515,78.66135 93.16625,161.36922 h 42.9027 z"
         id="path2800"
         style="fill:url(#blue)" />
      <path
         d="m 1201.4431,540.00001 -21.4509,-37.15454 -186.71095,156.66892 114.99505,41.85478 z"
         id="path2798"
         style="fill:url(#blue)" />
      <path
         d="m 926.71895,420.48563 -114.9952,-41.85478 -93.16686,161.36916 21.45102,37.15455 z"
         id="path2796"
         style="fill:url(#mauve)" />
      <path
         d="M 1025.6116,330.90417 H 839.27845 l -21.451,37.15449 229.03415,83.36188 z"
         id="path2794"
         style="fill:url(#blue)" />
      <path
         d="m 1173.8879,492.27339 -93.1663,-161.36922 h -42.9026 l 42.3238,240.03057 z"
         id="path2783"
         style="fill:url(#mauve)" />
    </g>
    <g
       id="g3071"
       transform="matrix(-1,0,0,1,2354.0215,17.814468)">
      <path
         style="fill:url(#mauve)"
         d="m 1740.8592,-932.6073 -206.4485,-36.40209 26.0426,71.55183 h 160.1122 z"
         id="path3027" />
      <path
         style="fill:url(#blue)"
         d="m 1478.0103,-1094.4483 -48.9443,58.3296 80.0561,138.66114 h 40.5874 z"
         id="path3025" />
      <path
         style="fill:url(#blue)"
         d="m 1826.2872,-1080.5729 -20.2938,-35.1496 -134.7498,160.58802 74.9875,13.22246 z"
         id="path3023" />
      <path
         style="fill:url(#mauve)"
         d="m 1558.4433,-1206.0114 -74.9868,-13.2225 -80.0561,138.661 20.2937,35.1495 z"
         id="path3021" />
      <path
         style="fill:url(#blue)"
         d="m 1669.2337,-1263.6883 h -160.1116 l -20.2938,35.1497 206.4486,36.4021 z"
         id="path3019" />
      <path
         style="fill:url(#mauve)"
         d="m 1800.6216,-1125.0272 -80.0561,-138.6611 h -40.5875 l 71.6993,196.9907 z"
         id="path2868" />
    </g>
    <g
       id="g1028"
       transform="translate(-3555.3165,-4244.4777)">
      <path
         d="m 2531.4706,1017.3201 -69.1537,-119.77694 h 138.3067 L 2663.145,789.2528 h -520.3815 l 62.5209,108.29036 h 131.9897 l 105.1162,182.06614 h 53.1176 z"
         id="path966"
         style="fill:url(#blue)" />
      <path
         d="m 2098.1425,959.83237 69.153,119.77693 h 125.0429 l -260.1905,-450.6642 -62.522,108.29042 65.9951,114.30649 -105.1156,182.06559 26.5588,46.0017 h 71.9252 z"
         id="path964"
         style="fill:url(#mauve)" />
      <path
         d="m 2115.6705,452.99558 h -125.0429 l -65.9946,114.30631 -210.2319,6e-5 -26.5588,46.00127 35.9627,62.28922 h 138.3066 l -69.1536,119.77635 62.5214,108.29037 z"
         id="path962"
         style="fill:url(#blue)" />
      <path
         d="m 2527.9391,659.30454 210.2319,-6e-5 26.5588,-46.00126 -35.9626,-62.28922 h -138.3067 l 69.1537,-119.77636 -62.5215,-108.29036 -260.191,450.66357 h 125.0428 z"
         id="path960"
         style="fill:url(#mauve)" />
      <path
         d="M 2247.2878,329.06328 H 2115.2981 L 2010.1818,146.9971 h -53.1176 l -35.9626,62.28922 69.1536,119.77696 h -138.3067 l -62.5214,108.29036 h 520.3815 z"
         id="path958"
         style="fill:url(#mauve)" />
      <path
         d="m 2482.9463,489.37092 -65.9952,-114.3065 105.1156,-182.06557 -26.5588,-46.00175 h -71.9252 l -69.153,119.77696 -69.1531,-119.77696 h -125.0428 l 260.1904,450.66424 z"
         id="path947"
         style="fill:url(#blue)" />
    </g>
    <g
       id="g1680">
      <path
         style="stroke:url(#mauve);fill:url(#blue)"
         d="m 1075.8786,-3208.1246 -53.1869,-92.1227 h 106.3743 l 69.4747,-120.3336 H 696.16089 l 69.4745,120.3336 h 118.107 l 98.6435,170.8552 h 48.03661 z"
         id="path1485" />
      <path
         style="stroke:url(#mauve);fill:url(#mauve)"
         d="m 654.079,-3221.5148 53.18689,92.1227 h 138.9493 l -251.18934,-435.0736 -69.47524,120.3337 59.05375,102.2836 -98.64352,170.8551 24.0186,41.6012 h 90.91268 z"
         id="path1483" />
      <path
         style="stroke:url(#mauve);fill:url(#blue)"
         d="M 669.06595,-3723.9938 H 530.11667 l -59.05374,102.2836 H 273.7765 l -24.0186,41.6011 45.45664,78.7325 h 106.37375 l -53.18687,92.1227 69.47463,120.3336 z"
         id="path1481" />
      <path
         style="stroke:url(#mauve);fill:url(#mauve)"
         d="m 1069.339,-3538.5079 h 197.2865 l 24.0186,-41.6012 -45.4567,-78.7325 h -106.3737 l 53.1868,-92.1226 -69.4746,-120.3337 -251.18991,435.0736 h 138.94931 z"
         id="path1479" />
      <path
         style="stroke:url(#mauve);fill:url(#mauve)"
         d="M 774.76659,-3859.9709 H 656.65955 l -98.64352,-170.8551 h -48.03659 l -45.45604,78.7325 53.18687,92.1226 H 411.33592 l -69.47464,120.3337 h 502.37981 z"
         id="path1477" />
      <path
         style="stroke:url(#mauve);fill:url(#blue)"
         d="m 1014.8514,-3716.0861 -59.05381,-102.2836 98.64351,-170.8552 -24.0186,-41.6011 h -90.91271 l -53.1868,92.1226 -53.1869,-92.1226 h -138.9493 l 251.1893,435.0736 z"
         id="path1167-6" />
    </g>
    <g
       id="g1615">
      <path
         style="stroke:url(#mauve);fill:url(#blue)"
         d="m 3122.1483,-3240.1608 -37.2181,-64.4638 h 74.4362 l 76.4297,-132.3802 H 2751.418 l 76.4303,132.3802 h 104.2218 l 92.1709,159.644 h 42.955 z"
         id="path1571" />
      <path
         style="stroke:url(#mauve);fill:url(#mauve)"
         d="m 2711.8754,-3209.4444 37.2181,64.4638 h 152.8595 l -242.1885,-419.4836 -76.4303,132.3803 52.1115,90.2593 -92.1704,159.6439 21.4775,37.2001 h 109.9045 z"
         id="path1569" />
      <path
         style="stroke:url(#mauve);fill:url(#blue)"
         d="m 2724.3204,-3707.5684 h -152.8595 l -52.1109,90.2593 h -184.3413 l -21.4775,37.2 54.9522,95.1802 h 74.4369 l -37.2187,64.4638 76.4297,132.3802 z"
         id="path1567" />
      <path
         style="stroke:url(#mauve);fill:url(#mauve)"
         d="m 3112.5988,-3542.9084 h 184.3413 l 21.4775,-37.2007 -54.9522,-95.1802 h -74.4368 l 37.2187,-64.4637 -76.4298,-132.3803 -242.189,419.4835 h 152.8595 z"
         id="path1565" />
      <path
         style="stroke:url(#mauve);fill:url(#mauve)"
         d="m 2804.1011,-3855.5936 h -104.2224 l -92.1709,-159.6439 h -42.955 l -54.9522,95.1801 37.2181,64.4638 h -74.4362 l -76.4298,132.3803 h 484.3782 z"
         id="path1563" />
      <path
         style="stroke:url(#mauve);fill:url(#blue)"
         d="m 3048.6147,-3728.1343 -52.1115,-90.2592 92.1703,-159.644 -21.4775,-37.2 h -109.9045 l -37.2181,64.4637 -37.2181,-64.4637 h -152.8594 l 242.1884,419.4835 z"
         id="path1178" />
    </g>
    <g
       id="g1672">
      <path
         style="stroke:url(#mauve);fill:url(#blue)"
         d="m 5077.4837,-3239.4022 -21.2463,-36.7997 h 42.4926 l 83.3875,-144.4303 h -466.3763 l 83.3868,144.4303 h 90.3358 l 85.6971,148.4311 h 37.8726 z"
         id="path1628" />
      <path
         style="stroke:url(#mauve);fill:url(#mauve)"
         d="m 4678.7375,-3164.5705 21.2463,36.7997 h 166.7737 l -233.1876,-403.8934 -83.3874,144.4303 45.1682,78.2331 -85.6971,148.4316 18.9366,32.7984 h 128.901 z"
         id="path1626" />
      <path
         style="stroke:url(#mauve);fill:url(#blue)"
         d="m 4688.6406,-3658.3428 h -166.7737 l -45.1681,78.2337 h -171.3937 l -18.9366,32.7983 64.4508,111.6314 h 42.4926 l -21.2463,36.8002 83.3869,144.4303 z"
         id="path1624" />
      <path
         style="stroke:url(#mauve);fill:url(#mauve)"
         d="m 5064.9249,-3514.5119 h 171.3937 l 18.9366,-32.7989 -64.4508,-111.6314 h -42.4926 l 21.2463,-36.8002 -83.3869,-144.4304 -233.1881,403.894 h 166.7736 z"
         id="path1622" />
      <path
         style="stroke:url(#mauve);fill:url(#mauve)"
         d="m 4742.4963,-3818.4197 h -90.3364 l -85.6971,-148.4311 h -37.8726 l -64.4502,111.6314 21.2463,36.7997 h -42.4927 l -83.3874,144.4303 h 466.3769 z"
         id="path1619" />
      <path
         style="stroke:url(#mauve);fill:url(#blue)"
         d="m 4991.4412,-3707.3877 -45.1682,-78.2331 85.6971,-148.4317 -18.9366,-32.7983 h -128.901 l -21.2463,36.7997 -21.2463,-36.7997 h -166.7737 l 233.1875,403.894 z"
         id="path1189" />
    </g>
    <g
       id="g1736"
       inkscape:export-filename="D:\Projects\nixos-boot\src\theme\nixos-10.png"
       inkscape:export-xdpi="25.400002"
       inkscape:export-ydpi="25.400002">
      <path
         style="fill:url(#blue)"
         d="m -2116.9804,-2478.1974 -5.2717,-9.1302 h 10.5428 l 90.3462,-156.4843 h -448.3743 l 90.3462,156.4843 h 76.4473 l 79.2226,137.218 h 32.7895 z"
         id="path1692" />
      <path
         style="fill:url(#mauve)"
         d="m -2504.2013,-2359.2398 5.2711,9.1302 h 180.6924 l -224.1866,-388.3036 -90.3468,156.4842 38.2237,66.2049 -79.2225,137.2174 16.3947,28.3971 h 147.9029 z"
         id="path1690" />
      <path
         style="fill:url(#blue)"
         d="m -2496.8411,-2848.663 -180.6924,-6e-4 -38.2231,66.2055 h -158.4457 l -16.3947,28.3964 73.9514,128.0878 h 10.5428 l -5.2717,9.1297 90.3462,156.4842 z"
         id="path1688" />
      <path
         style="fill:url(#mauve)"
         d="m -2132.5506,-2725.6646 h 158.4458 l 16.3947,-28.3971 -73.9514,-128.0878 h -10.5429 l 5.2717,-9.1296 -90.3462,-156.4843 -224.1871,388.3031 180.6923,6e-4 z"
         id="path1686" />
      <path
         style="fill:url(#mauve)"
         d="m -2468.9159,-3020.7957 h -76.4474 l -79.2225,-137.2181 h -32.7895 l -73.9515,128.0878 5.2718,9.1303 h -10.5429 l -90.3462,156.4842 h 448.3738 z"
         id="path1684" />
      <path
         style="fill:url(#blue)"
         d="m -2215.536,-2926.1944 -38.2237,-66.2048 79.2226,-137.2175 -16.3947,-28.3971 h -147.9029 l -5.2712,9.1303 -5.2711,-9.1303 h -180.6923 l 224.1865,388.3043 z"
         id="path1200" />
    </g>
    <g
       id="g1792">
      <path
         style="fill:url(#blue)"
         d="M 104.51454,-2639.4157 H -325.8577 l 97.30805,168.5426 h 62.55518 l 72.74779,126.0024 h 27.70538 z"
         id="path1748" />
      <path
         style="fill:url(#mauve)"
         d="m -389.05935,-2717.5839 -97.30865,168.5425 31.27789,54.1744 -72.74779,126.0024 13.853,23.9939 h 340.11106 z"
         id="path1746" />
      <path
         style="fill:url(#blue)"
         d="m -352.96476,-2811.4025 h -194.6161 l -31.27788,54.1744 h -145.49497 l -13.853,23.9938 170.05584,294.545 z"
         id="path1744" />
      <path
         style="fill:url(#mauve)"
         d="m -0.66746,-2709.2405 h 145.49497 l 13.853,-23.9938 -170.05584,-294.545 -215.18612,372.7132 h 194.6161 z"
         id="path1742" />
      <path
         style="fill:url(#mauve)"
         d="m -350.97656,-2995.5955 h -62.55517 l -72.74779,-126.0024 h -27.70538 l -170.05584,294.545 h 430.37223 z"
         id="path1740" />
      <path
         style="fill:url(#blue)"
         d="m -93.1582,-2917.4273 -31.27789,-54.1743 72.74779,-126.0025 -13.853,-23.9938 h -340.11107 l 215.18552,372.7132 z"
         id="path1211" />
    </g>
    <g
       id="g1848">
      <path
         style="fill:url(#blue)"
         d="m 2228.3537,-2687.0271 h -412.3694 l 104.2722,180.6057 h 48.6606 l 66.2721,114.7858 h 22.6202 z"
         id="path1804" />
      <path
         style="fill:url(#mauve)"
         d="m 1762.2698,-2748.7588 -104.2734,180.6064 24.3306,42.1413 -66.2714,114.7858 11.3101,19.5897 h 341.0884 z"
         id="path1802" />
      <path
         style="fill:url(#blue)"
         d="m 1788.8736,-2826.1418 h -208.5461 l -24.33,42.1408 H 1423.454 l -11.3102,19.5903 170.5442,295.3916 z"
         id="path1800" />
      <path
         style="fill:url(#mauve)"
         d="m 2129.1776,-2744.821 h 132.5436 l 11.3101,-19.5897 -170.5442,-295.3916 -206.185,357.1227 h 208.5455 z"
         id="path1798" />
      <path
         style="fill:url(#mauve)"
         d="m 1764.9187,-3022.4 h -48.6607 l -66.272,-114.7858 h -22.6203 l -170.5442,295.3915 h 412.3699 z"
         id="path1796" />
      <path
         style="fill:url(#blue)"
         d="m 2027.1787,-2960.669 -24.3306,-42.1413 66.2715,-114.7858 -11.3102,-19.5897 H 1716.721 l 206.1844,357.1226 z"
         id="path1222" />
    </g>
    <g
       id="g1904"
       inkscape:export-filename="D:\Projects\nixos-boot\src\theme\nixos-16.pngz"
       inkscape:export-xdpi="25.400002"
       inkscape:export-ydpi="25.400002">
      <path
         style="fill:url(#blue)"
         d="m 4163.824,-2641.099 -394.3667,-6e-4 111.2404,192.6747 h 34.7627 l 59.7946,103.5666 h 17.5339 z"
         id="path1860" />
      <path
         style="fill:url(#mauve)"
         d="m 3725.2326,-2686.3895 -111.241,192.6742 17.3816,30.1053 -59.7946,103.5672 8.7673,15.1845 h 342.0694 z"
         id="path1858" />
      <path
         style="fill:url(#blue)"
         d="m 3742.3427,-2747.3347 h -222.4809 l -17.3816,30.1053 h -119.5886 l -8.7673,15.1852 171.035,296.2407 z"
         id="path1856" />
      <path
         style="fill:url(#mauve)"
         d="m 4070.6546,-2686.8591 h 119.5886 l 8.7673,-15.1851 -171.0351,-296.2407 -197.1833,341.5311 h 222.4809 z"
         id="path1854" />
      <path
         style="fill:url(#mauve)"
         d="m 3692.437,-2955.6636 h -34.7626 l -59.7946,-103.5666 h -17.5339 l -171.0351,296.2407 394.3673,6e-4 z"
         id="path1852" />
      <path
         style="fill:url(#blue)"
         d="m 3959.1432,-2910.3731 -17.3816,-30.1054 59.7946,-103.5671 -8.7673,-15.1846 h -342.0694 l 197.1827,341.5312 z"
         id="path1233" />
    </g>
    <g
       id="g1960"
       inkscape:export-filename="D:\Projects\nixos-boot\src\theme\nixos-18.png"
       inkscape:export-xdpi="25.400002"
       inkscape:export-ydpi="25.400002"
       transform="translate(177.73424,28.063301)">
      <path
         style="fill:url(#blue)"
         d="m 5929.4088,-2637.2123 h -376.3633 l 118.2113,204.7491 h 20.861 l 54.8221,94.9543 h 9.4354 z"
         id="path1916" />
      <path
         style="fill:url(#mauve)"
         d="m 5519.8177,-2663.4497 -118.2125,204.7491 10.4308,18.0661 -54.8216,94.9537 4.7177,8.1719 h 346.067 z"
         id="path1914" />
      <path
         style="fill:url(#blue)"
         d="M 5525.9265,-2705.3444 H 5289.502 l -10.4301,18.0661 h -109.6438 l -4.7176,8.1713 173.0335,299.7028 z"
         id="path1912" />
      <path
         style="fill:url(#mauve)"
         d="m 5839.2354,-2670.9357 h 109.6438 l 4.7177,-8.1713 -173.0335,-299.7028 -188.182,325.9402 h 236.4239 z"
         id="path1910" />
      <path
         style="fill:url(#mauve)"
         d="m 5447.0505,-2925.7508 h -20.8609 l -54.8222,-94.9543 h -9.4353 l -173.0335,299.7034 h 376.3638 z"
         id="path1908" />
      <path
         style="fill:url(#blue)"
         d="m 5716.7021,-2899.5134 -10.4308,-18.0661 54.8216,-94.9537 -4.7176,-8.1719 h -346.067 l 188.1819,325.9408 z"
         id="path1244" />
    </g>
    <g
       id="g2413"
       inkscape:export-filename="D:\Projects\nixos-boot\src\theme\nixos-20.png"
       inkscape:export-xdpi="25.400002"
       inkscape:export-ydpi="25.400002">
      <path
         style="fill:url(#blue)"
         d="m -1010.1227,-1837.9282 h -356.0539 l 125.4359,216.8378 h 6.9686 l 49.1065,84.8897 z"
         id="path2369" />
      <path
         style="fill:url(#mauve)"
         d="m -1386.4863,-1841.7163 -125.4358,216.8379 3.484,6.0233 -49.1064,84.8896 h 349.0846 z"
         id="path2367" />
      <path
         style="fill:url(#blue)"
         d="m -1393.3541,-1861.1648 h -250.8717 l -3.4846,6.0226 h -98.2136 l 174.5429,301.7276 z"
         id="path2365" />
      <path
         style="fill:url(#mauve)"
         d="m -1101.8631,-1853.5888 3.4846,-6.0226 h 98.2136 l -174.5429,-301.7275 -178.0263,307.7501 z"
         id="path2363" />
      <path
         style="fill:url(#mauve)"
         d="m -1505.3481,-2093.6632 h -6.9687 l -49.1065,-84.8897 -174.5429,301.7276 h 356.0545 z"
         id="path2361" />
      <path
         style="fill:url(#blue)"
         d="m -1234.1668,-2089.8752 -3.484,-6.0233 49.1065,-84.8896 h -349.0846 l 178.0269,307.7508 z"
         id="path1255" />
    </g>
    <g
       id="g2469"
       transform="matrix(-1,0,0,1,1479.8353,37.417735)">
      <path
         style="fill:url(#mauve)"
         d="m 929.57003,-1566.9949 -194.7416,-278.1194 -131.83114,282.7123 h 323.92054 z"
         id="path2425" />
      <path
         style="fill:url(#blue)"
         d="m 1100.1396,-1862.4305 -2.6522,-4.5935 -338.22917,29.5911 178.9211,255.5259 z"
         id="path2423" />
      <path
         style="fill:url(#blue)"
         d="m 729.26623,-1870.1125 -310.75224,27.1871 161.96025,280.5234 h 5.3039 z"
         id="path2421" />
      <path
         style="fill:url(#mauve)"
         d="m 748.13383,-1887.4281 -178.92111,-255.5259 -161.96025,280.5235 2.65225,4.5935 z"
         id="path2419" />
      <path
         style="fill:url(#blue)"
         d="M 904.39473,-2162.459 H 580.47424 l -2.65225,4.5929 194.74164,278.1195 z"
         id="path2417" />
      <path
         style="fill:url(#mauve)"
         d="M 1088.8781,-1881.9356 926.91783,-2162.459 h -5.3039 l -143.4881,307.7105 z"
         id="path1266" />
    </g>
    <g
       id="g2881">
      <path
         style="fill:url(#mauve)"
         d="m 2659.4295,-1583.2041 222.489,-222.4889 65.5333,244.573 h -275.2717 z"
         id="path2837" />
      <path
         style="fill:url(#blue)"
         d="m 2513.9582,-1835.1681 12.7506,-22.0848 303.9253,81.4364 -179.0403,179.0403 z"
         id="path2835" />
      <path
         style="fill:url(#blue)"
         d="m 2881.6864,-1865.0452 244.5731,65.5334 -137.6356,238.3918 h -25.5012 z"
         id="path2833" />
      <path
         style="fill:url(#mauve)"
         d="m 2830.1706,-1894.5203 179.0396,-179.0397 137.6356,238.3919 -12.7506,22.0842 z"
         id="path2831" />
      <path
         style="fill:url(#blue)"
         d="m 2713.3522,-2109.2162 h 275.2717 l 12.7506,22.0841 -222.4889,222.4883 z"
         id="path2829" />
      <path
         style="fill:url(#mauve)"
         d="m 2534.5446,-1870.8244 137.6355,-238.3918 h 25.5012 l 81.4363,303.9246 z"
         id="path1277" />
    </g>
    <g
       id="g2956">
      <path
         style="fill:url(#mauve)"
         d="m 4600.0578,-1590.9372 236.3163,-165.4707 17.2909,197.638 h -235.0354 z"
         id="path2912" />
      <path
         style="fill:url(#blue)"
         d="m 4475.408,-1806.837 18.5718,-32.1673 261.4599,121.9205 -162.514,113.7933 z"
         id="path2910" />
      <path
         style="fill:url(#blue)"
         d="m 4842.7856,-1846.1611 179.8049,83.844 -117.5177,203.5472 h -37.1435 z"
         id="path2908" />
      <path
         style="fill:url(#mauve)"
         d="m 4768.2633,-1896.5902 162.5134,-113.7933 117.5177,203.5465 -18.5718,32.1667 z"
         id="path2906" />
      <path
         style="fill:url(#blue)"
         d="m 4670.0374,-2054.904 h 235.0354 l 18.5718,32.1672 -236.3163,165.4701 z"
         id="path2904" />
      <path
         style="fill:url(#mauve)"
         d="m 4501.1119,-1851.3575 117.5177,-203.5465 h 37.1435 l 25.1437,287.3905 z"
         id="path1288" />
    </g>
    <g
       id="g3012">
      <path
         style="fill:url(#mauve)"
         d="m -2528.3561,-886.05522 235.1839,-109.66847 -12.801,146.31997 h -201.2218 z"
         id="path2968" />
      <path
         style="fill:url(#blue)"
         d="m -2270.4567,-1107.9126 120.316,84.2462 -100.6109,174.26268 h -42.3216 z"
         id="path2966" />
      <path
         style="fill:url(#blue)"
         d="m -2635.4167,-1071.4904 21.1611,-36.6515 212.5674,148.84101 -133.1176,62.07319 z"
         id="path2964" />
      <path
         style="fill:url(#mauve)"
         d="m -2356.2579,-1183.6798 133.1171,-62.0732 100.6109,174.2626 -21.1611,36.6521 z"
         id="path2962" />
      <path
         style="fill:url(#blue)"
         d="m -2451.9734,-1293.577 h 201.2218 l 21.1611,36.6515 -235.184,109.6685 z"
         id="path2960" />
      <path
         style="fill:url(#mauve)"
         d="m -2607.8059,-1119.3137 100.6109,-174.2633 h 42.3216 l -22.6165,258.5094 z"
         id="path1390" />
    </g>
    <g
       id="g3068">
      <path
         style="fill:url(#mauve)"
         d="m -461.36428,-907.20629 219.36711,-58.77933 -25.565,95.40946 h -172.65349 z"
         id="path3024" />
      <path
         style="fill:url(#blue)"
         d="m -256.06868,-870.57676 58.77873,-219.36594 69.84488,69.8443 -86.32695,149.52224 z"
         id="path3022" />
      <path
         style="fill:url(#blue)"
         d="m -553.43748,-1066.6824 21.14863,-36.6295 160.58749,160.58717 -95.40916,25.56459 z"
         id="path3020" />
      <path
         style="fill:url(#mauve)"
         d="m -282.28632,-1190.6401 95.40916,-25.5646 86.32695,149.5223 -21.14863,36.6301 z"
         id="path3018" />
      <path
         style="fill:url(#blue)"
         d="m -386.42551,-1262.7887 h 172.65349 l 21.14862,36.6302 -219.36712,58.7793 z"
         id="path3016" />
      <path
         style="fill:url(#mauve)"
         d="m -526.54261,-1113.2658 86.32695,-149.5229 42.29665,7e-4 -58.77872,219.3665 z"
         id="path1401" />
    </g>
    <g
       id="g3142">
      <path
         style="fill:url(#mauve)"
         d="m 1647.533,-977.43433 190.6362,-16.67832 -23.057,49.44503 h -148.6615 z"
         id="path3080" />
      <path
         style="fill:url(#blue)"
         d="m 1905.9318,-1118.1026 31.2924,44.6904 -74.3304,128.74458 h -37.8355 z"
         id="path3078" />
      <path
         style="fill:url(#blue)"
         d="m 1568.2292,-1114.7921 18.9178,-32.7667 109.7621,156.75607 -54.3489,4.75513 z"
         id="path3076" />
      <path
         style="fill:url(#mauve)"
         d="m 1832.4355,-1238.7815 54.3488,-4.7552 74.331,128.7446 -18.9177,32.7667 z"
         id="path3074" />
      <path
         style="fill:url(#blue)"
         d="m 1714.2323,-1284.9166 h 148.6615 l 18.9178,32.7667 -190.6362,16.6783 z"
         id="path3072" />
      <path
         style="fill:url(#mauve)"
         d="m 1592.1203,-1156.1721 74.3304,-128.7445 h 37.8356 l -80.8735,173.4344 z"
         id="path1412" />
    </g>
  </g>
</svg>
